<svg width="590" height="425" viewBox="0 0 590 425" fill="none" xmlns="http://www.w3.org/2000/svg">
<path fill-rule="evenodd" clip-rule="evenodd" d="M267.467 178.11C263.689 178.11 260.626 181.174 260.626 184.954V240.046C260.626 243.687 263.468 246.664 267.054 246.878L310.008 203.904C310.2 203.711 310.461 203.603 310.733 203.603C311.006 203.603 311.267 203.711 311.459 203.904L329.374 221.827V184.954C329.374 181.174 326.311 178.11 322.533 178.11H267.467ZM331.426 224.303V184.954C331.426 180.04 327.445 176.057 322.533 176.057H267.467C262.555 176.057 258.574 180.04 258.574 184.954V240.046C258.574 244.96 262.555 248.943 267.467 248.943H322.533C327.445 248.943 331.426 244.96 331.426 240.046V224.307C331.426 224.306 331.426 224.305 331.426 224.303ZM329.374 224.731L310.733 206.081L269.944 246.89H322.533C326.311 246.89 329.374 243.826 329.374 240.046V224.731ZM281.233 193.851C278.542 193.851 276.359 196.034 276.359 198.727C276.359 201.42 278.542 203.603 281.233 203.603C283.925 203.603 286.107 201.42 286.107 198.727C286.107 196.034 283.925 193.851 281.233 193.851ZM274.307 198.727C274.307 194.9 277.408 191.797 281.233 191.797C285.059 191.797 288.159 194.9 288.159 198.727C288.159 202.554 285.059 205.656 281.233 205.656C277.408 205.656 274.307 202.554 274.307 198.727Z" fill="#111827"/>
</svg>
